<svg width="1600" height="1000" viewBox="0 0 1600 1000" fill="none" xmlns="http://www.w3.org/2000/svg">
  <rect width="1600" height="1000" rx="36" fill="#050505"/>
  <rect x="48" y="48" width="1504" height="904" rx="28" fill="#0B0B0B" stroke="rgba(255,255,255,0.08)"/>
  <rect x="96" y="96" width="300" height="808" rx="24" fill="#101010" stroke="rgba(255,255,255,0.08)"/>
  <rect x="440" y="96" width="1016" height="128" rx="24" fill="#101010" stroke="rgba(255,255,255,0.08)"/>
  <rect x="440" y="264" width="488" height="288" rx="24" fill="#111111" stroke="rgba(255,255,255,0.08)"/>
  <rect x="968" y="264" width="488" height="288" rx="24" fill="#111111" stroke="rgba(255,255,255,0.08)"/>
  <rect x="440" y="592" width="1016" height="264" rx="24" fill="#101010" stroke="rgba(255,255,255,0.08)"/>
  <rect x="136" y="156" width="220" height="16" rx="8" fill="#F5F5F5" fill-opacity="0.85"/>
  <rect x="136" y="196" width="176" height="12" rx="6" fill="#A1A1AA"/>
  <rect x="136" y="264" width="120" height="10" rx="5" fill="#71717A"/>
  <rect x="136" y="312" width="220" height="52" rx="18" fill="#FAFAFA" fill-opacity="0.08"/>
  <rect x="136" y="388" width="220" height="52" rx="18" fill="#FAFAFA" fill-opacity="0.04"/>
  <rect x="136" y="464" width="220" height="52" rx="18" fill="#FAFAFA" fill-opacity="0.04"/>
  <rect x="136" y="540" width="220" height="52" rx="18" fill="#FAFAFA" fill-opacity="0.04"/>
  <rect x="488" y="140" width="220" height="14" rx="7" fill="#F5F5F5" fill-opacity="0.9"/>
  <rect x="488" y="176" width="300" height="10" rx="5" fill="#71717A"/>
  <rect x="488" y="312" width="180" height="14" rx="7" fill="#F5F5F5" fill-opacity="0.85"/>
  <rect x="488" y="350" width="368" height="10" rx="5" fill="#71717A"/>
  <rect x="488" y="398" width="392" height="112" rx="20" fill="url(#paint0_linear_241_2)"/>
  <rect x="1016" y="312" width="210" height="14" rx="7" fill="#F5F5F5" fill-opacity="0.85"/>
  <rect x="1016" y="350" width="244" height="10" rx="5" fill="#71717A"/>
  <circle cx="1120" cy="468" r="88" fill="url(#paint1_linear_241_2)"/>
  <rect x="1256" y="404" width="120" height="18" rx="9" fill="#F5F5F5" fill-opacity="0.7"/>
  <rect x="1256" y="442" width="144" height="12" rx="6" fill="#71717A"/>
  <rect x="1256" y="474" width="112" height="12" rx="6" fill="#71717A"/>
  <rect x="488" y="640" width="240" height="14" rx="7" fill="#F5F5F5" fill-opacity="0.85"/>
  <rect x="488" y="680" width="920" height="18" rx="9" fill="#18181B"/>
  <rect x="488" y="724" width="880" height="18" rx="9" fill="#18181B"/>
  <rect x="488" y="768" width="760" height="18" rx="9" fill="#18181B"/>
  <defs>
    <linearGradient id="paint0_linear_241_2" x1="488" y1="398" x2="880" y2="510" gradientUnits="userSpaceOnUse">
      <stop stop-color="#FFFFFF" stop-opacity="0.14"/>
      <stop offset="1" stop-color="#FFFFFF" stop-opacity="0.02"/>
    </linearGradient>
    <linearGradient id="paint1_linear_241_2" x1="1032" y1="380" x2="1208" y2="556" gradientUnits="userSpaceOnUse">
      <stop stop-color="#FFFFFF" stop-opacity="0.2"/>
      <stop offset="1" stop-color="#FFFFFF" stop-opacity="0.03"/>
    </linearGradient>
  </defs>
</svg>
