<svg width="1600" height="1000" viewBox="0 0 1600 1000" fill="none" xmlns="http://www.w3.org/2000/svg">
  <rect width="1600" height="1000" rx="36" fill="#050505"/>
  <rect x="48" y="48" width="1504" height="904" rx="28" fill="#0B0B0B" stroke="rgba(255,255,255,0.08)"/>
  <rect x="96" y="96" width="1408" height="92" rx="24" fill="#101010" stroke="rgba(255,255,255,0.08)"/>
  <rect x="96" y="228" width="928" height="676" rx="24" fill="#101010" stroke="rgba(255,255,255,0.08)"/>
  <rect x="1064" y="228" width="440" height="676" rx="24" fill="#101010" stroke="rgba(255,255,255,0.08)"/>
  <rect x="144" y="132" width="184" height="14" rx="7" fill="#F5F5F5" fill-opacity="0.9"/>
  <rect x="1296" y="124" width="160" height="34" rx="17" fill="#FAFAFA" fill-opacity="0.08"/>
  <rect x="144" y="284" width="180" height="12" rx="6" fill="#A1A1AA"/>
  <rect x="144" y="332" width="832" height="92" rx="20" fill="#111111" stroke="rgba(255,255,255,0.08)"/>
  <rect x="144" y="448" width="832" height="92" rx="20" fill="#111111" stroke="rgba(255,255,255,0.08)"/>
  <rect x="144" y="564" width="832" height="92" rx="20" fill="#111111" stroke="rgba(255,255,255,0.08)"/>
  <rect x="144" y="680" width="832" height="92" rx="20" fill="#111111" stroke="rgba(255,255,255,0.08)"/>
  <rect x="184" y="368" width="180" height="12" rx="6" fill="#F5F5F5" fill-opacity="0.85"/>
  <rect x="184" y="484" width="180" height="12" rx="6" fill="#F5F5F5" fill-opacity="0.85"/>
  <rect x="184" y="600" width="180" height="12" rx="6" fill="#F5F5F5" fill-opacity="0.85"/>
  <rect x="184" y="716" width="180" height="12" rx="6" fill="#F5F5F5" fill-opacity="0.85"/>
  <rect x="760" y="356" width="168" height="28" rx="14" fill="#FFFFFF" fill-opacity="0.08"/>
  <rect x="760" y="472" width="168" height="28" rx="14" fill="#FFFFFF" fill-opacity="0.08"/>
  <rect x="760" y="588" width="168" height="28" rx="14" fill="#FFFFFF" fill-opacity="0.14"/>
  <rect x="760" y="704" width="168" height="28" rx="14" fill="#FFFFFF" fill-opacity="0.08"/>
  <rect x="1112" y="284" width="180" height="12" rx="6" fill="#A1A1AA"/>
  <path d="M1168 416C1168 372.922 1202.92 338 1246 338H1322C1365.08 338 1400 372.922 1400 416V416C1400 459.078 1365.08 494 1322 494H1246C1202.92 494 1168 459.078 1168 416V416Z" fill="url(#paint0_linear_241_7)"/>
  <rect x="1112" y="550" width="344" height="14" rx="7" fill="#F5F5F5" fill-opacity="0.85"/>
  <rect x="1112" y="594" width="296" height="18" rx="9" fill="#18181B"/>
  <rect x="1112" y="638" width="260" height="18" rx="9" fill="#18181B"/>
  <rect x="1112" y="682" width="312" height="18" rx="9" fill="#18181B"/>
  <defs>
    <linearGradient id="paint0_linear_241_7" x1="1168" y1="338" x2="1400" y2="494" gradientUnits="userSpaceOnUse">
      <stop stop-color="#FFFFFF" stop-opacity="0.2"/>
      <stop offset="1" stop-color="#FFFFFF" stop-opacity="0.03"/>
    </linearGradient>
  </defs>
</svg>
