<svg width="1600" height="1000" viewBox="0 0 1600 1000" fill="none" xmlns="http://www.w3.org/2000/svg">
  <rect width="1600" height="1000" rx="36" fill="#050505"/>
  <rect x="48" y="48" width="1504" height="904" rx="28" fill="#0B0B0B" stroke="rgba(255,255,255,0.08)"/>
  <rect x="96" y="96" width="1408" height="92" rx="24" fill="#101010" stroke="rgba(255,255,255,0.08)"/>
  <rect x="96" y="228" width="440" height="676" rx="24" fill="url(#paint0_linear_241_14)"/>
  <rect x="576" y="228" width="928" height="676" rx="24" fill="#101010" stroke="rgba(255,255,255,0.08)"/>
  <rect x="144" y="128" width="160" height="14" rx="7" fill="#F5F5F5" fill-opacity="0.9"/>
  <rect x="624" y="284" width="216" height="14" rx="7" fill="#F5F5F5" fill-opacity="0.85"/>
  <rect x="624" y="330" width="832" height="18" rx="9" fill="#18181B"/>
  <rect x="624" y="374" width="784" height="18" rx="9" fill="#18181B"/>
  <rect x="624" y="458" width="392" height="188" rx="22" fill="#111111" stroke="rgba(255,255,255,0.08)"/>
  <rect x="1064" y="458" width="392" height="188" rx="22" fill="#111111" stroke="rgba(255,255,255,0.08)"/>
  <rect x="624" y="694" width="392" height="162" rx="22" fill="#111111" stroke="rgba(255,255,255,0.08)"/>
  <rect x="1064" y="694" width="392" height="162" rx="22" fill="#111111" stroke="rgba(255,255,255,0.08)"/>
  <rect x="664" y="510" width="160" height="12" rx="6" fill="#F5F5F5" fill-opacity="0.85"/>
  <rect x="664" y="550" width="264" height="12" rx="6" fill="#71717A"/>
  <rect x="1104" y="510" width="160" height="12" rx="6" fill="#F5F5F5" fill-opacity="0.85"/>
  <rect x="1104" y="550" width="264" height="12" rx="6" fill="#71717A"/>
  <rect x="664" y="742" width="160" height="12" rx="6" fill="#F5F5F5" fill-opacity="0.85"/>
  <rect x="664" y="782" width="264" height="12" rx="6" fill="#71717A"/>
  <rect x="1104" y="742" width="160" height="12" rx="6" fill="#F5F5F5" fill-opacity="0.85"/>
  <rect x="1104" y="782" width="264" height="12" rx="6" fill="#71717A"/>
  <defs>
    <linearGradient id="paint0_linear_241_14" x1="96" y1="228" x2="536" y2="904" gradientUnits="userSpaceOnUse">
      <stop stop-color="#374151"/>
      <stop offset="1" stop-color="#111827"/>
    </linearGradient>
  </defs>
</svg>
